<svg xmlns="http://www.w3.org/2000/svg" viewBox="0 0 512 512" role="img" aria-label="Keyville crest icon">
  <defs>
    <linearGradient id="bg" x1="0" x2="1" y1="0" y2="1">
      <stop offset="0%" stop-color="#7ce3ff" />
      <stop offset="50%" stop-color="#ffd6f4" />
      <stop offset="100%" stop-color="#a5b4fc" />
    </linearGradient>
  </defs>
  <rect width="512" height="512" rx="72" fill="url(#bg)" />
  <circle cx="256" cy="150" r="100" fill="#0a152a" opacity="0.18" />
  <path d="M192 224c0-35.35 28.65-64 64-64s64 28.65 64 64-28.65 64-64 64-64-28.65-64-64zm64-36a16 16 0 100 32 16 16 0 000-32zm-24 100h48v120l-24 18-24-18V288z" fill="#0a152a" opacity="0.25" />
  <path d="M192 224c0-35.35 28.65-64 64-64s64 28.65 64 64-28.65 64-64 64-64-28.65-64-64zm64-36a16 16 0 100 32 16 16 0 000-32zm-24 100h48v120l-24 18-24-18V288z" fill="#f7fbff" />
  <path d="M96 352l80-56 80 104 80-104 80 56-160 128z" fill="#7efccf" opacity="0.9" />
  <circle cx="180" cy="142" r="12" fill="#ffd6a5" />
  <circle cx="340" cy="158" r="10" fill="#a5b4fc" />
  <text x="256" y="468" text-anchor="middle" font-family="Nunito, 'Segoe UI', sans-serif" font-size="64" fill="#0a152a" opacity="0.3">G6</text>
</svg>
