<svg xmlns="http://www.w3.org/2000/svg" viewBox="0 0 512 512" role="img" aria-label="Keyville crest icon">
  <defs>
    <linearGradient id="bg" x1="0" x2="1" y1="0" y2="1">
      <stop offset="0%" stop-color="#38bdf8" />
      <stop offset="50%" stop-color="#7c3aed" />
      <stop offset="100%" stop-color="#22c55e" />
    </linearGradient>
  </defs>
  <rect width="512" height="512" rx="72" fill="url(#bg)" />
  <circle cx="256" cy="150" r="100" fill="#0f172a" opacity="0.12" />
  <path d="M192 224c0-35.35 28.65-64 64-64s64 28.65 64 64-28.65 64-64 64-64-28.65-64-64zm64-36a16 16 0 100 32 16 16 0 000-32zm-24 100h48v120l-24 18-24-18V288z" fill="#f8fafc" />
  <path d="M96 352l80-56 80 104 80-104 80 56-160 128z" fill="#facc15" opacity="0.9" />
  <text x="256" y="468" text-anchor="middle" font-family="Nunito, 'Segoe UI', sans-serif" font-size="64" fill="#0f172a" opacity="0.25">G6</text>
</svg>
