<svg xmlns="http://www.w3.org/2000/svg" viewBox="0 0 192 192" role="img" aria-label="Keyville badge icon">
  <defs>
    <linearGradient id="bg" x1="0" x2="1" y1="0" y2="1">
      <stop offset="0%" stop-color="#7c3aed" />
      <stop offset="100%" stop-color="#22c55e" />
    </linearGradient>
  </defs>
  <rect width="192" height="192" rx="32" fill="url(#bg)" />
  <circle cx="96" cy="62" r="36" fill="#0f172a" opacity="0.15" />
  <path d="M74 88c0-12.15 9.85-22 22-22s22 9.85 22 22-9.85 22-22 22-22-9.85-22-22zm22-12a6 6 0 100 12 6 6 0 000-12zm-8 34h16v32l-8 6-8-6V110z" fill="#f8fafc" />
  <path d="M44 132l24-18 28 36 28-36 24 18-52 44z" fill="#facc15" opacity="0.9" />
</svg>
